<svg width="30" height="30" viewBox="0 0 30 30" fill="none" xmlns="http://www.w3.org/2000/svg">
<g opacity="0.7">
<path d="M14.1973 2.51855C14.4792 1.93649 15.2414 1.93653 15.5234 2.51855L18.8057 9.30273C19.0544 9.81655 19.5277 10.186 20.0898 10.2803L27.2188 11.4766C27.7979 11.5737 28.0969 12.3775 27.627 12.874L22.5254 18.2627C22.1344 18.6757 21.9597 19.2535 22.0439 19.8174L23.1689 27.3398C23.2762 28.0568 22.5921 28.4714 22.0977 28.2061L15.6641 24.7539C15.1603 24.4835 14.5614 24.4835 14.0576 24.7539L7.62305 28.2061C7.1286 28.4714 6.44555 28.0568 6.55273 27.3398L7.67676 19.8174C7.76102 19.2535 7.5864 18.6758 7.19531 18.2627L2.09375 12.874C1.624 12.3774 1.92285 11.5737 2.50195 11.4766L9.63086 10.2803C10.1931 10.186 10.6673 9.8167 10.916 9.30273L14.1973 2.51855Z" fill="black" stroke="#DEE2E6"/>
</g>
</svg>
