<svg width="30" height="30" viewBox="0 0 30 30" fill="none" xmlns="http://www.w3.org/2000/svg">
<path d="M13.7471 2.30129C14.211 1.34228 15.51 1.34228 15.9739 2.30129L19.2554 9.08464C19.437 9.4601 19.7778 9.72133 20.1724 9.78753L27.3018 10.9837C28.3097 11.1528 28.7111 12.456 27.9899 13.2178L22.8886 18.6063C22.6062 18.9046 22.4761 19.3273 22.5383 19.7437L23.663 27.2663C23.8221 28.3298 22.7712 29.1353 21.8615 28.647L15.4273 25.194C15.0711 25.0029 14.6499 25.0029 14.2937 25.194L7.85949 28.647C6.94983 29.1353 5.89896 28.3298 6.05796 27.2663L7.18271 19.7437C7.24496 19.3273 7.11477 18.9046 6.83239 18.6063L1.7311 13.2178C1.00989 12.456 1.41128 11.1528 2.41921 10.9837L9.54858 9.78753C9.94318 9.72133 10.284 9.4601 10.4656 9.08464L13.7471 2.30129Z" fill="#DEE2E6"/>
</svg>
