<svg width="30" height="30" viewBox="0 0 30 30" fill="none" xmlns="http://www.w3.org/2000/svg">
<g clip-path="url(#clip0_1334_8780)">
<g clip-path="url(#clip1_1334_8780)">
<path opacity="0.7" d="M14.1973 2.51855C14.4792 1.93649 15.2414 1.93653 15.5234 2.51855L18.8057 9.30273C19.0544 9.81655 19.5277 10.186 20.0898 10.2803L27.2188 11.4766C27.7979 11.5737 28.0969 12.3775 27.627 12.874L22.5254 18.2627C22.1344 18.6757 21.9597 19.2535 22.0439 19.8174L23.1689 27.3398C23.2762 28.0568 22.5921 28.4714 22.0977 28.2061L15.6641 24.7539C15.1603 24.4835 14.5614 24.4835 14.0576 24.7539L7.62305 28.2061C7.1286 28.4714 6.44555 28.0568 6.55273 27.3398L7.67676 19.8174C7.76102 19.2535 7.5864 18.6758 7.19531 18.2627L2.09375 12.874C1.62401 12.3774 1.92285 11.5737 2.50195 11.4766L9.63086 10.2803C10.1931 10.186 10.6673 9.8167 10.916 9.30273L14.1973 2.51855Z" fill="black" stroke="#DEE2E6"/>
<mask id="mask0_1334_8780" style="mask-type:alpha" maskUnits="userSpaceOnUse" x="1" y="1" width="28" height="28">
<path d="M13.7471 2.30129C14.211 1.34228 15.51 1.34228 15.9739 2.30129L19.2554 9.08464C19.437 9.4601 19.7778 9.72133 20.1724 9.78753L27.3018 10.9837C28.3097 11.1528 28.7111 12.456 27.9899 13.2179L22.8886 18.6063C22.6062 18.9046 22.476 19.3273 22.5383 19.7437L23.663 27.2663C23.822 28.3298 22.7712 29.1353 21.8615 28.647L15.4273 25.194C15.0711 25.0029 14.6499 25.0029 14.2937 25.194L7.85949 28.647C6.94983 29.1353 5.89895 28.3298 6.05795 27.2663L7.18271 19.7437C7.24496 19.3273 7.11477 18.9046 6.83239 18.6063L1.7311 13.2179C1.00989 12.456 1.41128 11.1528 2.41921 10.9837L9.54858 9.78753C9.94317 9.72133 10.284 9.4601 10.4656 9.08464L13.7471 2.30129Z" fill="#ADB5BD"/>
</mask>
<g mask="url(#mask0_1334_8780)">
<rect width="15" height="30" fill="#FFB310"/>
</g>
</g>
</g>
<defs>
<clipPath id="clip0_1334_8780">
<rect width="30" height="30" fill="white"/>
</clipPath>
<clipPath id="clip1_1334_8780">
<rect width="30" height="30" fill="white"/>
</clipPath>
</defs>
</svg>
