<svg width="88" height="81" viewBox="0 0 88 81" fill="none" xmlns="http://www.w3.org/2000/svg">
<path d="M51.6089 17.8027C62.3685 17.8027 70.7633 20.122 76.7944 24.7607C84.2648 30.4435 88.0005 38.3596 88.0005 48.5078C88.0005 59.004 84.5045 67.1224 77.5142 72.8633C71.6887 77.676 63.0196 80.083 51.5063 80.083H20.1519V17.8027H51.6089ZM39.3774 66.6885H49.9653C55.9962 66.6885 60.4513 65.3838 63.3296 62.7744C66.756 59.5848 68.4692 55.0033 68.4692 49.0303C68.4692 42.2458 66.1051 37.3164 61.3765 34.2432C58.1555 32.2138 53.9064 31.1993 48.6294 31.1992H39.3774V66.6885Z" fill="white"/>
<path d="M31.457 0.917969C42.2168 0.917994 50.6115 3.23805 56.6426 7.87695C64.1129 13.5597 67.8476 21.4748 67.8477 31.623C67.8477 42.1192 64.3527 50.2376 57.3623 55.9785C51.5368 60.7913 42.8677 63.1982 31.3545 63.1982H0V0.917969H31.457ZM19.2246 49.8037H29.8135C35.8444 49.8037 40.2994 48.4991 43.1777 45.8896C46.604 42.7002 48.3173 38.1193 48.3174 32.1465C48.3174 25.362 45.9531 20.4326 41.2246 17.3594C38.0036 15.3299 33.7537 14.3145 28.4766 14.3145H19.2246V49.8037Z" fill="white" fill-opacity="0.2"/>
</svg>
