<svg width="877" height="544" viewBox="0 0 877 544" fill="none" xmlns="http://www.w3.org/2000/svg">
<path d="M410.401 544C386.723 544 369.626 536.91 359.113 522.73C348.698 508.549 343.491 485.979 343.491 455.018V424.532H394.78V463.526C394.78 470.735 395.663 476.407 397.432 480.543C399.298 484.561 402.492 486.571 407.011 486.571C411.728 486.571 414.97 484.915 416.738 481.607C418.606 478.299 419.537 472.863 419.537 465.298C419.537 455.728 418.753 447.751 417.179 441.371C415.608 434.871 412.858 428.727 408.928 422.937C405.095 417.027 399.741 410.175 392.863 402.374L369.577 375.786C352.186 356.051 343.491 333.483 343.491 308.077C343.491 281.488 348.6 261.223 358.819 247.279C369.135 233.334 384.02 226.362 403.474 226.362C427.251 226.362 444.101 233.983 454.025 249.228C464.046 264.472 469.057 287.632 469.057 318.711H416.297V297.264C416.297 293.009 415.265 289.702 413.201 287.337C411.235 284.973 408.534 283.791 405.095 283.791C400.969 283.791 397.923 285.211 395.957 288.048C394.091 290.763 393.157 294.31 393.157 298.682C393.157 303.054 394.14 307.78 396.106 312.862C398.07 317.944 401.952 323.793 407.747 330.409L437.666 364.975C443.659 371.829 449.162 379.096 454.172 386.776C459.183 394.338 463.212 403.202 466.257 413.365C469.304 423.409 470.826 435.699 470.826 450.233C470.826 479.54 466.306 502.523 457.266 519.183C448.326 535.728 432.705 544 410.401 544ZM510.471 541.164V289.109H479.67V229.198H593.15V289.109H562.349V541.164H510.471ZM596.687 541.164L621.741 229.198H709.727L734.339 541.164H685.262L681.577 490.823H650.332L647.091 541.164H596.687ZM654.016 441.015H677.597L666.25 282.375H663.892L654.016 441.015ZM750.255 541.164V229.198H829.838C843.104 229.198 853.125 232.863 859.905 240.189C866.684 247.397 871.204 257.559 873.464 270.675C875.822 283.673 877 298.977 877 316.585C877 333.601 875.183 347.189 871.548 357.352C868.011 367.516 861.28 374.545 851.357 378.445C859.512 380.455 865.209 385.358 868.452 393.158C871.793 400.838 873.464 410.824 873.464 423.114V541.164H822.323V419.037C822.323 409.936 820.751 404.326 817.607 402.197C814.562 399.951 809.599 398.83 802.723 398.83V541.164H750.255ZM803.017 344.768H815.543C822.715 344.768 826.303 335.373 826.303 316.585C826.303 304.413 825.517 296.435 823.945 292.656C822.372 288.873 819.425 286.983 815.102 286.983H803.017V344.768Z" fill="white"/>
<path d="M20.0977 4.45695H109.643C140.272 4.45695 164.169 11.0603 181.338 24.2656C202.603 40.4422 213.235 62.9745 213.235 91.8626C213.235 121.741 203.285 144.851 183.386 161.193C166.803 174.893 142.125 181.744 109.351 181.744H20.0977V4.45695ZM74.8199 42.5886V143.613H104.961C122.129 143.613 134.809 139.899 143.003 132.47C152.757 123.391 157.635 110.351 157.635 93.3483C157.635 74.0349 150.904 60.0032 137.443 51.2549C128.274 45.4779 116.179 42.5886 101.157 42.5886H74.8199ZM421.521 4.45695V109.938C421.521 133.543 415.766 151.207 404.256 162.926C389.039 178.443 364.458 186.201 330.513 186.201C294.42 186.201 268.767 177.453 253.55 159.955C243.99 148.895 239.211 132.057 239.211 109.443V4.45695H293.934V112.909C293.934 125.29 296.86 134.286 302.713 139.899C308.759 145.346 318.416 148.07 331.683 148.07C343.974 148.07 352.947 145.346 358.605 139.899C364.262 134.286 367.092 125.29 367.092 112.909V4.45695H421.521ZM649.012 112.662C647.647 131.15 640.136 147.079 626.479 160.45C609.117 177.617 584.34 186.201 552.151 186.201C517.816 186.201 491.186 176.131 472.262 155.993C456.07 138.99 447.973 117.944 447.973 92.8531C447.973 66.9362 457.241 45.1467 475.773 27.4845C495.087 9.16152 521.131 0 553.906 0C581.22 0 603.946 7.18065 622.09 21.5419C637.698 33.9223 646.184 49.1084 647.549 67.1018H594.29C592.144 59.0128 588.828 52.9061 584.34 48.7788C576.732 41.6802 566.296 38.1317 553.028 38.1317C536.641 38.1317 523.961 43.6611 514.986 54.7214C507.378 64.4601 503.574 77.2538 503.574 93.1007C503.574 111.424 508.451 125.455 518.205 135.194C526.79 143.778 538.203 148.07 552.443 148.07C567.075 148.07 578.195 143.531 585.803 134.451C589.9 129.499 592.729 122.236 594.29 112.662H649.012ZM867.343 4.45695L789.503 74.0348L877 181.744H809.109L752.631 107.462L730.098 127.023V181.744H675.376V4.45695H730.098V48.7788V61.902V74.0348C737.707 65.1209 744.145 58.1059 749.412 52.9882L799.745 4.45695H867.343Z" fill="white"/>
<path d="M150 235L189.676 330.391L292.658 338.647L214.196 405.859L238.168 506.353L150 452.5L61.8322 506.353L85.8037 405.859L7.34152 338.647L110.324 330.391L150 235Z" fill="#FFB310"/>
</svg>
