<svg width="14" height="15" viewBox="0 0 14 15" fill="none" xmlns="http://www.w3.org/2000/svg">
<path d="M1 5L13.1429 2.01383" stroke="#495057" stroke-width="0.928571" stroke-linecap="round" stroke-linejoin="round"/>
<path d="M3 6.00024C3 6.24652 3.81426 13.6388 3.99287 13.813C4.17148 13.9871 4.41372 14.0849 4.66631 14.0849H11.333C11.5856 14.0849 11.8278 13.9871 12.0064 13.813C12.185 13.6388 12.6153 5.18866 12.6153 4.94238H11" stroke="#495057" stroke-width="0.928571"/>
<path d="M4.91273 3.9732L4.81009 3.52242C4.67397 2.92466 4.79347 2.28456 5.14228 1.74295C5.49109 1.20133 6.04065 0.80256 6.67005 0.634362C7.29946 0.466163 7.95715 0.542314 8.49846 0.846062C9.03976 1.14981 9.42033 1.65627 9.55644 2.25404L9.65908 2.70481" stroke="#495057" stroke-width="0.928571" stroke-linecap="round" stroke-linejoin="round"/>
<path d="M6.71436 6.19214V11.2993" stroke="#495057" stroke-width="0.928571" stroke-linecap="round" stroke-linejoin="round"/>
<path d="M9.28564 6.19214V11.2993" stroke="#495057" stroke-width="0.928571" stroke-linecap="round" stroke-linejoin="round"/>
</svg>
