<svg width="22" height="22" viewBox="0 0 22 22" fill="none" xmlns="http://www.w3.org/2000/svg">
<path d="M10.7957 14.928C14.7011 14.928 17.8671 11.762 17.8671 7.85659C17.8671 3.95114 14.7011 0.785156 10.7957 0.785156C6.89023 0.785156 3.72424 3.95114 3.72424 7.85659C3.72424 11.762 6.89023 14.928 10.7957 14.928Z" stroke="#990033" stroke-width="2" stroke-linecap="round" stroke-linejoin="round"/>
<path d="M10.7957 10.9986C12.5314 10.9986 13.9385 9.5915 13.9385 7.85575C13.9385 6.12 12.5314 4.71289 10.7957 4.71289C9.05994 4.71289 7.65283 6.12 7.65283 7.85575C7.65283 9.5915 9.05994 10.9986 10.7957 10.9986Z" stroke="#990033" stroke-width="2" stroke-linecap="round" stroke-linejoin="round"/>
<path d="M9.42858 14.8017L8.04572 20.616C8.01836 20.7265 7.96777 20.8299 7.89732 20.9193C7.82687 21.0088 7.73818 21.0821 7.63715 21.1346C7.53053 21.1809 7.41553 21.2048 7.2993 21.2048C7.18306 21.2048 7.06806 21.1809 6.96144 21.1346L1.7443 18.856C1.63486 18.8043 1.53857 18.7284 1.46265 18.6342C1.38672 18.5399 1.33314 18.4296 1.30592 18.3117C1.27871 18.1937 1.27856 18.0712 1.30549 17.9532C1.33243 17.8351 1.38574 17.7248 1.46144 17.6303L5.50001 12.5703" stroke="#990033" stroke-width="2" stroke-linecap="round" stroke-linejoin="round"/>
<path d="M12.5714 14.7229L13.9857 20.6158C14.0138 20.7281 14.0664 20.8329 14.1398 20.9225C14.2131 21.0122 14.3054 21.0845 14.41 21.1343C14.5137 21.1812 14.6262 21.2054 14.74 21.2054C14.8538 21.2054 14.9663 21.1812 15.07 21.1343L20.2557 18.8558C20.3668 18.8047 20.4644 18.7283 20.5408 18.6328C20.6172 18.5374 20.6702 18.4254 20.6957 18.3058C20.7255 18.1888 20.7268 18.0664 20.6994 17.9488C20.6721 17.8312 20.6169 17.7219 20.5386 17.6301L16.3271 12.2715" stroke="#990033" stroke-width="2" stroke-linecap="round" stroke-linejoin="round"/>
</svg>
