<svg width="30" height="31" viewBox="0 0 30 31" fill="none" xmlns="http://www.w3.org/2000/svg">
<g clip-path="url(#clip0_318_1104)">
<path d="M9.10707 15.6038C9.69881 15.6038 10.1785 15.1241 10.1785 14.5324C10.1785 13.9406 9.69881 13.4609 9.10707 13.4609C8.51534 13.4609 8.03564 13.9406 8.03564 14.5324C8.03564 15.1241 8.51534 15.6038 9.10707 15.6038Z" stroke="#990033" stroke-width="2.14286" stroke-linecap="round" stroke-linejoin="round"/>
<path d="M16.0714 15.6038C16.6632 15.6038 17.1429 15.1241 17.1429 14.5324C17.1429 13.9406 16.6632 13.4609 16.0714 13.4609C15.4797 13.4609 15 13.9406 15 14.5324C15 15.1241 15.4797 15.6038 16.0714 15.6038Z" stroke="#990033" stroke-width="2.14286" stroke-linecap="round" stroke-linejoin="round"/>
<path d="M23.0358 15.6038C23.6275 15.6038 24.1072 15.1241 24.1072 14.5324C24.1072 13.9406 23.6275 13.4609 23.0358 13.4609C22.4441 13.4609 21.9644 13.9406 21.9644 14.5324C21.9644 15.1241 22.4441 15.6038 23.0358 15.6038Z" stroke="#990033" stroke-width="2.14286" stroke-linecap="round" stroke-linejoin="round"/>
<path d="M9.64296 27.3881L1.07153 29.531L3.21439 23.1024V3.81669C3.21439 3.24836 3.44015 2.70332 3.84202 2.30146C4.24388 1.89959 4.78893 1.67383 5.35725 1.67383H26.7858C27.3541 1.67383 27.8992 1.89959 28.301 2.30146C28.7029 2.70332 28.9287 3.24836 28.9287 3.81669V25.2453C28.9287 25.8136 28.7029 26.3586 28.301 26.7605C27.8992 27.1623 27.3541 27.3881 26.7858 27.3881H9.64296Z" stroke="#990033" stroke-width="2.14286" stroke-linecap="round" stroke-linejoin="round"/>
</g>
<defs>
<clipPath id="clip0_318_1104">
<rect width="30" height="30" fill="white" transform="translate(0 0.603516)"/>
</clipPath>
</defs>
</svg>
