<svg width="20" height="21" viewBox="0 0 20 21" fill="none" xmlns="http://www.w3.org/2000/svg">
<g clip-path="url(#clip0_282_3383)">
<path d="M4.81445 8.96088L8.44302 3.16088C8.58365 2.93164 8.78125 2.74272 9.01658 2.61254C9.25192 2.48235 9.51695 2.41534 9.78588 2.41802C9.99768 2.41038 10.2089 2.44527 10.407 2.52063C10.605 2.596 10.786 2.71031 10.9392 2.8568C11.0923 3.0033 11.2146 3.17901 11.2986 3.37355C11.3827 3.5681 11.427 3.77752 11.4287 3.98945V8.1466H17.7002C17.9319 8.15411 18.1594 8.21059 18.3678 8.31233C18.5761 8.41406 18.7606 8.55874 18.909 8.73686C19.0574 8.91498 19.1665 9.12249 19.229 9.34577C19.2915 9.56904 19.306 9.80302 19.2716 10.0323L18.1287 17.4037C18.08 17.7977 17.889 18.1603 17.5918 18.4233C17.2945 18.6864 16.9114 18.8318 16.5145 18.8323H7.14302C6.69691 18.8341 6.25658 18.7313 5.85731 18.5323L4.82874 18.018" fill="#990033"/>
<path d="M4.81445 8.96088L8.44302 3.16088C8.58365 2.93164 8.78125 2.74272 9.01658 2.61254C9.25192 2.48235 9.51695 2.41534 9.78588 2.41802V2.41802C9.99768 2.41038 10.2089 2.44527 10.407 2.52063C10.605 2.596 10.786 2.71031 10.9392 2.8568C11.0923 3.0033 11.2146 3.17901 11.2986 3.37355C11.3827 3.5681 11.427 3.77752 11.4287 3.98945V8.1466H17.7002C17.9319 8.15411 18.1594 8.21059 18.3678 8.31233C18.5761 8.41406 18.7606 8.55874 18.909 8.73686C19.0574 8.91498 19.1665 9.12249 19.229 9.34577C19.2915 9.56904 19.306 9.80302 19.2716 10.0323L18.1287 17.4037C18.08 17.7977 17.889 18.1603 17.5918 18.4233C17.2945 18.6864 16.9114 18.8318 16.5145 18.8323H7.14302C6.69691 18.8341 6.25658 18.7313 5.85731 18.5323L4.82874 18.018" stroke="white" stroke-width="1.42857" stroke-linecap="round" stroke-linejoin="round"/>
<path d="M4.81445 8.96094V17.9752" stroke="white" stroke-width="1.42857" stroke-linecap="round" stroke-linejoin="round"/>
<path d="M1.4284 8.96094H4.81411V17.9752H1.4284C1.23896 17.9752 1.05728 17.9 0.923321 17.766C0.789366 17.6321 0.714111 17.4504 0.714111 17.2609V9.67522C0.714111 9.48578 0.789366 9.3041 0.923321 9.17015C1.05728 9.03619 1.23896 8.96094 1.4284 8.96094Z" fill="#990033" stroke="white" stroke-width="1.42857" stroke-linecap="round" stroke-linejoin="round"/>
</g>
<defs>
<clipPath id="clip0_282_3383">
<rect width="20" height="20" fill="white" transform="translate(0 0.603516)"/>
</clipPath>
</defs>
</svg>
