<svg width="29" height="30" viewBox="0 0 29 30" fill="none" xmlns="http://www.w3.org/2000/svg">
<g clip-path="url(#clip0_1352_17784)">
<path d="M7.45361 13.9941V26.0735C7.45361 26.6075 7.66572 27.1195 8.04327 27.4971C8.42083 27.8746 8.9329 28.0868 9.46684 28.0868H19.533C20.0669 28.0868 20.579 27.8746 20.9566 27.4971C21.3341 27.1195 21.5462 26.6075 21.5462 26.0735V13.9941" stroke="#FFB310" stroke-width="2.01323" stroke-linecap="round" stroke-linejoin="round"/>
<path d="M21.5462 13.9934V9.96699C21.5462 9.43304 21.3341 8.92097 20.9566 8.54342C20.579 8.16586 20.0669 7.95375 19.533 7.95375C18.9991 7.95375 18.487 7.74165 18.1094 7.36409C17.7319 6.98654 17.5198 6.47447 17.5198 5.94052V4.93391C17.5198 4.133 17.2016 3.36489 16.6353 2.79855C16.0689 2.23222 15.3008 1.91406 14.4999 1.91406C13.699 1.91406 12.9309 2.23222 12.3646 2.79855C11.7982 3.36489 11.4801 4.133 11.4801 4.93391V5.94052C11.4801 6.47447 11.268 6.98654 10.8904 7.36409C10.5129 7.74165 10.0008 7.95375 9.46684 7.95375C8.9329 7.95375 8.42083 8.16586 8.04327 8.54342C7.66572 8.92097 7.45361 9.43304 7.45361 9.96699V13.9934" stroke="#FFB310" stroke-width="2.01323" stroke-linecap="round" stroke-linejoin="round"/>
<path d="M5.44043 13.9941H23.5595" stroke="#FFB310" stroke-width="2.01323" stroke-linecap="round" stroke-linejoin="round"/>
<path d="M15.5063 20.0332H21.546" stroke="#FFB310" stroke-width="2.01323" stroke-linecap="round" stroke-linejoin="round"/>
</g>
<defs>
<clipPath id="clip0_1352_17784">
<rect width="28.1852" height="28.1852" fill="white" transform="translate(0.407227 0.908203)"/>
</clipPath>
</defs>
</svg>
