<svg width="54" height="54" viewBox="0 0 54 54" fill="none" xmlns="http://www.w3.org/2000/svg">
<g clip-path="url(#clip0_1252_7834)">
<path d="M48.5998 0.675781H5.3998C2.79026 0.675781 0.674805 2.79124 0.674805 5.40078V48.6008C0.674805 51.2103 2.79026 53.3258 5.3998 53.3258H48.5998C51.2094 53.3258 53.3248 51.2103 53.3248 48.6008V5.40078C53.3248 2.79124 51.2094 0.675781 48.5998 0.675781Z" fill="#F2F2F2"/>
<mask id="mask0_1252_7834" style="mask-type:luminance" maskUnits="userSpaceOnUse" x="13" y="13" width="28" height="28">
<path d="M40.5 13.5H13.5V40.5H40.5V13.5Z" fill="white"/>
</mask>
<g mask="url(#mask0_1252_7834)">
<path d="M39.96 27.3063C39.96 26.3491 39.8741 25.4286 39.7146 24.5449H27V29.767H34.2654C33.9525 31.4545 33.0014 32.8843 31.5716 33.8416V37.2288H35.9346C38.4873 34.8786 39.96 31.4176 39.96 27.3063Z" fill="#4285F4"/>
<path d="M27.0002 40.4995C30.6452 40.4995 33.701 39.2905 35.9346 37.2288L31.5717 33.8415C30.3629 34.6515 28.8165 35.1301 27.0002 35.1301C23.484 35.1301 20.5079 32.7553 19.4463 29.5645H14.936V33.0622C17.1575 37.4742 21.7229 40.4995 27.0002 40.4995Z" fill="#34A853"/>
<path d="M19.4461 29.5652C19.1761 28.7552 19.0227 27.89 19.0227 27.0002C19.0227 26.1104 19.1761 25.2452 19.4461 24.4352V20.9375H14.9359C14.0216 22.76 13.5 24.8219 13.5 27.0002C13.5 29.1786 14.0216 31.2404 14.9359 33.0629L19.4461 29.5652Z" fill="#FBBC04"/>
<path d="M27.0002 18.8694C28.9821 18.8694 30.7617 19.5504 32.1608 20.8881L36.0329 17.0161C33.695 14.8377 30.639 13.5 27.0002 13.5C21.7229 13.5 17.1575 16.5252 14.936 20.9373L19.4463 24.435C20.5079 21.2441 23.484 18.8694 27.0002 18.8694Z" fill="#E94235"/>
</g>
</g>
<defs>
<clipPath id="clip0_1252_7834">
<rect width="54" height="54" fill="white"/>
</clipPath>
</defs>
</svg>
