<svg width="33" height="33" viewBox="0 0 33 33" fill="none" xmlns="http://www.w3.org/2000/svg">
<circle cx="16.4384" cy="16.0405" r="16.0385" fill="#816BFF"/>
<path fill-rule="evenodd" clip-rule="evenodd" d="M4.55379 19.3819H5.62414C6.00484 19.3819 6.31291 19.0917 6.31291 18.7337V18.6085C6.31291 18.2509 6.00484 17.9606 5.62414 17.9606H4.55379C4.38445 17.9598 4.22231 17.8962 4.10277 17.7837C3.98324 17.6712 3.91601 17.5188 3.91579 17.36V13.3472C3.91579 12.9896 3.60728 12.6993 3.22658 12.6993H3.09355C2.71329 12.6993 2.40479 12.9896 2.40479 13.3472V17.36C2.40479 18.4721 3.37186 19.3819 4.55379 19.3819ZM17.8509 14.1211H18.5773V18.7341C18.5773 19.0917 18.8858 19.3815 19.266 19.3815H19.3995C19.7802 19.3815 20.0883 19.0917 20.0883 18.7337V14.1211H20.8147C21.1954 14.1211 21.5034 13.8308 21.5034 13.4728V13.3476C21.5034 12.99 21.1949 12.6997 20.8147 12.6997H17.8509C17.4702 12.6997 17.1621 12.99 17.1621 13.3476V13.4728C17.1621 13.8308 17.4706 14.1211 17.8509 14.1211ZM22.7471 19.3688C22.7921 19.377 22.839 19.3819 22.8862 19.3819H25.6627C26.0434 19.3819 26.3515 19.0917 26.3515 18.7337V18.6085C26.3515 18.2509 26.043 17.9606 25.6627 17.9606H23.708V16.7568H25.2278C25.6076 16.7568 25.9161 16.467 25.9161 16.109V15.9834C25.9161 15.6258 25.6076 15.3355 25.2273 15.3355H23.708V14.1211H25.6627C26.0434 14.1211 26.3515 13.8308 26.3515 13.4732V13.348C26.3515 12.99 26.043 12.6997 25.6627 12.6997H22.8862C22.5055 12.6997 22.197 12.99 22.197 13.348V18.7341C22.197 19.0473 22.4333 19.3089 22.7471 19.3692M8.70478 14.7394C8.70478 14.4409 8.92795 14.174 9.24214 14.1277C9.63728 14.0702 9.98167 14.36 9.98167 14.7213V16.2018H8.70478V14.7394ZM7.88211 19.3819H8.01557C8.39628 19.3819 8.70478 19.0917 8.70478 18.7337V17.6231H9.98167V18.7337C9.98167 19.0917 10.2897 19.3819 10.67 19.3819H10.8035C11.1842 19.3819 11.4922 19.0917 11.4922 18.7337V14.7213C11.4922 13.5545 10.4276 12.6102 9.16731 12.7059C8.04402 12.7913 7.19378 13.7023 7.19378 14.7628V18.7337C7.19378 19.0917 7.5014 19.3819 7.88211 19.3819ZM14.7098 14.1211H15.7797C16.16 14.1211 16.4685 13.8304 16.4685 13.4724V13.3472C16.4685 12.9896 16.16 12.6993 15.7797 12.6993H14.7094C13.5279 12.6993 12.5608 13.6091 12.5608 14.7213V18.7337C12.5608 19.0917 12.8685 19.3815 13.2492 19.3815H13.3822C13.7629 19.3815 14.071 19.0917 14.071 18.7337V16.9334H15.7797C16.16 16.9334 16.4685 16.6431 16.4685 16.2851V16.1603C16.4685 15.8023 16.16 15.512 15.7797 15.512H14.071V14.7213C14.071 14.3908 14.3584 14.1207 14.7098 14.1207M29.3818 19.3819H30.4517C30.8324 19.3819 31.1405 19.0917 31.1405 18.7337V18.6085C31.1405 18.2509 30.832 17.9606 30.4517 17.9606H29.3818C29.0304 17.9606 28.7429 17.6905 28.7429 17.36V13.3472C28.7429 12.9896 28.4344 12.6993 28.0546 12.6993H27.9211C27.5404 12.6993 27.2324 12.9896 27.2324 13.3472V17.36C27.2324 18.4721 28.1994 19.3819 29.3818 19.3819Z" fill="white"/>
</svg>
