<svg width="22" height="22" viewBox="0 0 22 22" fill="none" xmlns="http://www.w3.org/2000/svg">
<path d="M10.9999 12.43C12.9723 12.43 14.5713 10.831 14.5713 8.85854C14.5713 6.88609 12.9723 5.28711 10.9999 5.28711C9.02745 5.28711 7.42847 6.88609 7.42847 8.85854C7.42847 10.831 9.02745 12.43 10.9999 12.43Z" stroke="white" stroke-width="2" stroke-linecap="round" stroke-linejoin="round"/>
<path d="M4.8999 18.0008C5.53739 16.9544 6.43334 16.0896 7.50163 15.4895C8.56991 14.8894 9.77461 14.5742 10.9999 14.5742C12.2252 14.5742 13.4299 14.8894 14.4982 15.4895C15.5665 16.0896 16.4624 16.9544 17.0999 18.0008" stroke="white" stroke-width="2" stroke-linecap="round" stroke-linejoin="round"/>
<path d="M10.9999 20.2863C16.1283 20.2863 20.2857 16.1289 20.2857 11.0006C20.2857 5.8722 16.1283 1.71484 10.9999 1.71484C5.87159 1.71484 1.71423 5.8722 1.71423 11.0006C1.71423 16.1289 5.87159 20.2863 10.9999 20.2863Z" stroke="white" stroke-width="2" stroke-linecap="round" stroke-linejoin="round"/>
</svg>
