<svg width="18" height="18" viewBox="0 0 18 18" fill="none" xmlns="http://www.w3.org/2000/svg">
<path d="M11.5653 10.4664H10.9863L10.781 10.2685C11.5241 9.4066 11.9325 8.30625 11.9317 7.16826C11.9317 6.22604 11.6523 5.30497 11.1289 4.52154C10.6054 3.73812 9.86136 3.12751 8.99086 2.76693C8.12036 2.40636 7.16248 2.31202 6.23837 2.49584C5.31425 2.67966 4.46539 3.13338 3.79914 3.79963C3.13289 4.46588 2.67917 5.31474 2.49535 6.23886C2.31153 7.16297 2.40587 8.12085 2.76645 8.99135C3.12702 9.86185 3.73763 10.6059 4.52106 11.1293C5.30448 11.6528 6.22555 11.9322 7.16777 11.9322C8.34777 11.9322 9.43248 11.4998 10.268 10.7815L10.4659 10.9868V11.5658L14.1305 15.223L15.2225 14.131L11.5653 10.4664ZM7.16777 10.4664C5.34281 10.4664 3.86964 8.99322 3.86964 7.16826C3.86964 5.3433 5.34281 3.87013 7.16777 3.87013C8.99273 3.87013 10.4659 5.3433 10.4659 7.16826C10.4659 8.99322 8.99273 10.4664 7.16777 10.4664Z" fill="#FFB310"/>
</svg>
