<svg width="14" height="12" viewBox="0 0 14 12" fill="none" xmlns="http://www.w3.org/2000/svg">
<g clip-path="url(#clip0_760_7634)">
<path d="M5.25 5.99972C5.52614 5.99972 5.75 5.80784 5.75 5.57115C5.75 5.33446 5.52614 5.14258 5.25 5.14258C4.97386 5.14258 4.75 5.33446 4.75 5.57115C4.75 5.80784 4.97386 5.99972 5.25 5.99972Z" stroke="#000001" stroke-linecap="round" stroke-linejoin="round"/>
<path d="M9.5 5.99972C9.77614 5.99972 10 5.80784 10 5.57115C10 5.33446 9.77614 5.14258 9.5 5.14258C9.22386 5.14258 9 5.33446 9 5.57115C9 5.80784 9.22386 5.99972 9.5 5.99972Z" stroke="#000001" stroke-linecap="round" stroke-linejoin="round"/>
<path d="M4.5 10.7134L0.5 11.5706L1.5 8.99916V1.28488C1.5 1.05755 1.60536 0.839531 1.79289 0.678786C1.98043 0.51804 2.23478 0.427734 2.5 0.427734H12.5C12.7652 0.427734 13.0196 0.51804 13.2071 0.678786C13.3946 0.839531 13.5 1.05755 13.5 1.28488V9.85631C13.5 10.0836 13.3946 10.3017 13.2071 10.4624C13.0196 10.6231 12.7652 10.7134 12.5 10.7134H4.5Z" stroke="#000001" stroke-linecap="round" stroke-linejoin="round"/>
</g>
<defs>
<clipPath id="clip0_760_7634">
<rect width="14" height="12" fill="white"/>
</clipPath>
</defs>
</svg>
