<svg width="29" height="29" viewBox="0 0 29 29" fill="none" xmlns="http://www.w3.org/2000/svg">
<g clip-path="url(#clip0_1352_17126)">
<path d="M12.7026 2.11449C12.9163 1.77338 13.2131 1.49216 13.5653 1.29721C13.9174 1.10227 14.3134 1 14.7159 1C15.1184 1 15.5143 1.10227 15.8664 1.29721C16.2186 1.49216 16.5154 1.77338 16.7291 2.11449L20.6348 8.29511L25.7282 8.91921C26.1507 8.9664 26.5522 9.128 26.8896 9.38657C27.2269 9.64514 27.4873 9.99089 27.6427 10.3865C27.7981 10.7822 27.8425 11.2127 27.7712 11.6318C27.6999 12.0508 27.5156 12.4425 27.2382 12.7645L22.9902 17.6365L24.3592 24.3808C24.445 24.8209 24.4035 25.2763 24.2394 25.6935C24.0754 26.1108 23.7957 26.4725 23.4331 26.7363C23.0661 26.9953 22.6336 27.1458 22.185 27.1707C21.7365 27.1956 21.29 27.0939 20.8965 26.8772L14.7159 23.495L8.53524 26.8772C8.14173 27.0939 7.69522 27.1956 7.24669 27.1707C6.79815 27.1458 6.36565 26.9953 5.99857 26.7363C5.63604 26.4725 5.35632 26.1108 5.19228 25.6935C5.02823 25.2763 4.98667 24.8209 5.07248 24.3808L6.44148 17.6365L2.19356 12.7645C1.91611 12.4425 1.73181 12.0508 1.66052 11.6318C1.58923 11.2127 1.63366 10.7822 1.78902 10.3865C1.94438 9.99089 2.20478 9.64514 2.54215 9.38657C2.87951 9.128 3.28105 8.9664 3.70349 8.91921L8.79696 8.29511L12.7026 2.11449Z" stroke="#FFB310" stroke-width="2.01323" stroke-linecap="round" stroke-linejoin="round"/>
<path d="M11.4001 18.2392V11.6074H9.74219" stroke="#FFB310" stroke-width="1.65795" stroke-linecap="round" stroke-linejoin="round"/>
<path d="M9.74219 18.2383H13.0581" stroke="#FFB310" stroke-width="1.65795" stroke-linecap="round" stroke-linejoin="round"/>
<path d="M16.3735 18.2383H19.6894" stroke="#FFB310" stroke-width="1.65795" stroke-linecap="round" stroke-linejoin="round"/>
<path d="M16.3735 11.6074H19.6894" stroke="#FFB310" stroke-width="1.65795" stroke-linecap="round" stroke-linejoin="round"/>
<path d="M16.3735 11.6074L16.3735 18.2392" stroke="#FFB310" stroke-width="1.65795" stroke-linecap="round" stroke-linejoin="round"/>
<path d="M19.6899 11.6074L19.6899 18.2392" stroke="#FFB310" stroke-width="1.65795" stroke-linecap="round" stroke-linejoin="round"/>
</g>
<defs>
<clipPath id="clip0_1352_17126">
<rect width="28.1852" height="28.1852" fill="white" transform="translate(0.623047)"/>
</clipPath>
</defs>
</svg>
