<svg width="20" height="20" viewBox="0 0 20 20" fill="none" xmlns="http://www.w3.org/2000/svg">
<path d="M2.14282 15H17.8571V17.8571C17.8571 18.236 17.7066 18.5994 17.4387 18.8673C17.1708 19.1352 16.8074 19.2857 16.4285 19.2857H3.57139C3.19251 19.2857 2.82915 19.1352 2.56124 18.8673C2.29333 18.5994 2.14282 18.236 2.14282 17.8571V15Z" stroke="white" stroke-width="2" stroke-linecap="round" stroke-linejoin="round"/>
<path d="M14.9999 9.28627C14.6211 9.28627 14.2577 9.13576 13.9898 8.86785C13.7219 8.59994 13.5714 8.23658 13.5714 7.8577V4.28627C13.5714 3.33907 13.1951 2.43066 12.5253 1.76089C11.8556 1.09112 10.9471 0.714844 9.99995 0.714844C9.05275 0.714844 8.14434 1.09112 7.47457 1.76089C6.80479 2.43066 6.42852 3.33907 6.42852 4.28627V7.8577C6.42852 8.23658 6.27801 8.59994 6.0101 8.86785C5.74219 9.13576 5.37883 9.28627 4.99995 9.28627H3.57138C2.81361 9.28627 2.08689 9.58729 1.55107 10.1231C1.01525 10.6589 0.714233 11.3857 0.714233 12.1434V13.572C0.714233 13.9509 0.864743 14.3142 1.13265 14.5821C1.40056 14.85 1.76392 15.0006 2.1428 15.0006H17.8571C18.236 15.0006 18.5993 14.85 18.8672 14.5821C19.1352 14.3142 19.2857 13.9509 19.2857 13.572V12.1434C19.2857 11.3857 18.9846 10.6589 18.4488 10.1231C17.913 9.58729 17.1863 9.28627 16.4285 9.28627H14.9999Z" stroke="white" stroke-width="2" stroke-linecap="round" stroke-linejoin="round"/>
</svg>
