<svg width="16" height="16" viewBox="0 0 16 16" fill="none" xmlns="http://www.w3.org/2000/svg">
<g clip-path="url(#clip0_866_8310)">
<path d="M1.79102 11.4844H13.6372V13.6382C13.6372 13.9238 13.5237 14.1978 13.3217 14.3997C13.1198 14.6017 12.8459 14.7151 12.5602 14.7151H2.86794C2.58232 14.7151 2.3084 14.6017 2.10644 14.3997C1.90448 14.1978 1.79102 13.9238 1.79102 13.6382V11.4844Z" stroke="black" stroke-linecap="round" stroke-linejoin="round"/>
<path d="M11.4836 7.17638C11.198 7.17638 10.924 7.06292 10.7221 6.86096C10.5201 6.659 10.4067 6.38508 10.4067 6.09946V3.40715C10.4067 2.69311 10.123 2.00831 9.6181 1.5034C9.1132 0.998497 8.4284 0.714844 7.71436 0.714844C7.00031 0.714844 6.31551 0.998497 5.81061 1.5034C5.3057 2.00831 5.02205 2.69311 5.02205 3.40715V6.09946C5.02205 6.38508 4.90859 6.659 4.70662 6.86096C4.50466 7.06292 4.23074 7.17638 3.94512 7.17638H2.8682C2.29697 7.17638 1.74913 7.4033 1.3452 7.80723C0.941278 8.21115 0.714355 8.75899 0.714355 9.33023V10.4072C0.714355 10.6928 0.827817 10.9667 1.02978 11.1687C1.23174 11.3706 1.50566 11.4841 1.79128 11.4841H13.6374C13.9231 11.4841 14.197 11.3706 14.3989 11.1687C14.6009 10.9667 14.7144 10.6928 14.7144 10.4072V9.33023C14.7144 8.75899 14.4874 8.21115 14.0835 7.80723C13.6796 7.4033 13.1317 7.17638 12.5605 7.17638H11.4836Z" stroke="black" stroke-linecap="round" stroke-linejoin="round"/>
</g>
<defs>
<clipPath id="clip0_866_8310">
<rect width="16" height="16" fill="white"/>
</clipPath>
</defs>
</svg>
