<svg width="30" height="29" viewBox="0 0 30 29" fill="none" xmlns="http://www.w3.org/2000/svg">
<path d="M21.1875 18.252H19.9038L19.4488 17.8132C21.0963 15.9022 22.0018 13.4626 22 10.9395C22 8.85039 21.3805 6.80824 20.2199 5.07125C19.0593 3.33425 17.4096 1.98043 15.4796 1.18098C13.5496 0.38153 11.4258 0.172357 9.37686 0.579913C7.32794 0.98747 5.44588 1.99345 3.96869 3.47064C2.4915 4.94783 1.48552 6.82989 1.07796 8.87882C0.670404 10.9277 0.879577 13.0515 1.67903 14.9816C2.47848 16.9116 3.8323 18.5612 5.56929 19.7219C7.30629 20.8825 9.34844 21.502 11.4375 21.502C14.0538 21.502 16.4588 20.5432 18.3113 18.9507L18.75 19.4057V20.6895L26.875 28.7982L29.2963 26.377L21.1875 18.252ZM11.4375 18.252C7.39125 18.252 4.12501 14.9857 4.12501 10.9395C4.12501 6.89321 7.39125 3.62696 11.4375 3.62696C15.4838 3.62696 18.75 6.89321 18.75 10.9395C18.75 14.9857 15.4838 18.252 11.4375 18.252Z" fill="#990033"/>
</svg>
