<svg width="22" height="23" viewBox="0 0 22 23" fill="none" xmlns="http://www.w3.org/2000/svg">
<path d="M16.5 12.52L19.25 15.27V18.9367C19.25 19.9542 18.425 20.77 17.4167 20.77H4.58333C3.56583 20.77 2.75 19.945 2.75 18.9367V15.27L5.5 12.52H6.26083L8.09417 14.3534H6.215L4.58333 16.1867H17.4167L15.7942 14.3534H14.0433L15.8767 12.52H16.5ZM17.4167 18.9367V18.02H4.58333V18.9367H17.4167ZM10.395 14.3534L5.8575 9.8342C5.5 9.4767 5.5 8.8992 5.8575 8.5417L11.6967 2.70254C12.0542 2.34504 12.6317 2.34504 12.98 2.7117L17.5175 7.2492C17.875 7.6067 17.875 8.1842 17.5175 8.5417L11.6875 14.3534C11.33 14.7292 10.7525 14.7292 10.395 14.3534ZM12.3383 4.64587L7.79167 9.18337L11.0458 12.4284L15.5833 7.89087L12.3383 4.64587Z" fill="#990033"/>
</svg>
