<svg width="15" height="15" viewBox="0 0 15 15" fill="none" xmlns="http://www.w3.org/2000/svg">
<g clip-path="url(#clip0_1545_13666)">
<path d="M6.84729 1.79992C6.95343 1.63049 7.10087 1.4908 7.27579 1.39397C7.45071 1.29714 7.64736 1.24634 7.84729 1.24634C8.04722 1.24634 8.24388 1.29714 8.41879 1.39397C8.59371 1.4908 8.74116 1.63049 8.84729 1.79992L10.7873 4.86992L13.3173 5.17992C13.5271 5.20336 13.7266 5.28363 13.8941 5.41207C14.0617 5.5405 14.1911 5.71224 14.2682 5.90876C14.3454 6.10529 14.3675 6.31915 14.3321 6.52729C14.2967 6.73544 14.2051 6.92997 14.0673 7.08992L11.9573 9.50992L12.6373 12.8599C12.6799 13.0785 12.6593 13.3047 12.5778 13.512C12.4963 13.7192 12.3574 13.8989 12.1773 14.0299C11.995 14.1585 11.7801 14.2333 11.5573 14.2457C11.3345 14.2581 11.1128 14.2076 10.9173 14.0999L7.84729 12.4199L4.77729 14.0999C4.58183 14.2076 4.36004 14.2581 4.13725 14.2457C3.91445 14.2333 3.69963 14.1585 3.51729 14.0299C3.33722 13.8989 3.19828 13.7192 3.1168 13.512C3.03531 13.3047 3.01467 13.0785 3.05729 12.8599L3.73729 9.50992L1.62729 7.08992C1.48948 6.92997 1.39793 6.73544 1.36252 6.52729C1.32711 6.31915 1.34918 6.10529 1.42635 5.90876C1.50352 5.71224 1.63286 5.5405 1.80044 5.41207C1.96801 5.28363 2.16746 5.20336 2.37729 5.17992L4.90729 4.86992L6.84729 1.79992Z" stroke="#000001" stroke-linecap="round" stroke-linejoin="round"/>
</g>
<defs>
<clipPath id="clip0_1545_13666">
<rect width="14" height="14" fill="white" transform="translate(0.84729 0.75)"/>
</clipPath>
</defs>
</svg>
