<svg width="33" height="33" viewBox="0 0 33 33" fill="none" xmlns="http://www.w3.org/2000/svg">
<circle cx="16.7589" cy="15.5914" r="15.5914" fill="#0050FF"/>
<path fill-rule="evenodd" clip-rule="evenodd" d="M17.0215 13.8844C17.02 14.8449 17.2619 15.7901 17.7244 16.6319C17.8008 15.655 18.1152 14.7117 18.6401 13.8844H20.3192C19.4753 15.0525 18.9966 16.4446 18.9435 17.8847H16.8859C16.0191 16.7284 15.5372 15.3292 15.5082 13.8844H17.0215ZM22.0325 13.8844C22.0311 14.8449 22.2729 15.7901 22.7354 16.6319C22.8118 15.655 23.1262 14.7117 23.6512 13.8844H25.3302C24.4863 15.0525 24.0076 16.4446 23.9545 17.8847H21.8969C21.0302 16.7284 20.5483 15.3292 20.5192 13.8844H22.0325ZM9.36584 17.8847C9.26969 16.4622 9.66536 15.0499 10.4865 13.8844H8.81585C8.42979 14.5675 8.21248 15.333 8.18201 16.1171C7.84903 15.2423 7.75124 14.2954 7.89839 13.3709H6.55129C6.05028 14.1988 5.78426 15.1475 5.7818 16.1152C5.42032 15.0683 5.34129 13.9446 5.55268 12.8574H3.91333C3.6334 14.7232 4.07857 16.6765 5.24859 18.2631H6.902C6.75089 17.5166 6.7598 16.7467 6.92814 16.0039C7.06517 16.6756 7.33109 17.3143 7.71119 17.8847H9.36584ZM12.5782 16.771C12.0455 16.771 11.678 16.3741 11.678 15.8846C11.678 15.395 12.0455 14.9979 12.5782 14.9979C13.1107 14.9979 13.4784 15.395 13.4784 15.8846C13.4784 16.3741 13.1107 16.771 12.5782 16.771ZM13.7337 13.8844C13.7149 13.986 13.6977 14.0879 13.6819 14.19C13.3132 13.8952 12.8546 13.7359 12.3826 13.7386C11.1929 13.7386 10.2542 14.6904 10.2542 15.8846C10.2542 17.0788 11.1929 18.0305 12.3826 18.0305C12.8722 18.0305 13.3223 17.8672 13.6816 17.5792C13.6977 17.6813 13.7149 17.7829 13.7337 17.8845H15.0867C14.8424 16.5623 14.8424 15.2066 15.0867 13.8844H13.7337Z" fill="white"/>
<mask id="mask0_1018_8839" style="mask-type:luminance" maskUnits="userSpaceOnUse" x="25" y="13" width="5" height="6">
<path d="M25.0491 13.7383H29.4818V18.0304H25.0491V13.7383Z" fill="white"/>
</mask>
<g mask="url(#mask0_1018_8839)">
<path fill-rule="evenodd" clip-rule="evenodd" d="M26.4546 15.4215C26.5779 15.0121 26.9183 14.8099 27.3102 14.8099C27.7021 14.8099 28.0252 15.023 28.1497 15.4215H26.4546ZM27.3077 13.7383C25.8778 13.7383 25.0491 14.769 25.0491 15.8642C25.0491 17.0518 25.9278 18.0304 27.47 18.0304C28.1334 18.0304 28.8018 17.8437 29.2221 17.6375V16.4603C28.7976 16.6835 28.217 16.8816 27.6599 16.8816C26.9962 16.8816 26.5784 16.611 26.4588 16.2095H29.4702C29.594 14.7396 28.7056 13.7383 27.3077 13.7383Z" fill="white"/>
</g>
</svg>
