<svg width="3000" height="280" viewBox="0 0 3000 280" fill="none" xmlns="http://www.w3.org/2000/svg">
<g clip-path="url(#clip0_1254_8019)">
<rect width="3000" height="280" fill="url(#paint0_linear_1254_8019)"/>
<path d="M1934.64 -69.7757L1966.26 55.0338L2091.73 83.8907L1982.8 152.529L1994.13 280.782L1895.19 198.393L1776.72 248.801L1824.5 129.243L1739.95 32.1442L1868.42 40.6423L1934.64 -69.7757Z" fill="#FFB310"/>
<path d="M1846.87 -20.182L1878.48 104.628L2003.96 133.484L1895.03 202.123L1906.36 330.375L1807.42 247.987L1688.94 298.394L1736.73 178.837L1652.18 81.738L1780.65 90.236L1846.87 -20.182Z" fill="#FFB310" fill-opacity="0.3"/>
<path d="M1118.95 72.1484C1147.08 72.1484 1169.03 78.2139 1184.8 90.3438C1204.34 105.203 1214.1 125.901 1214.1 152.437C1214.1 179.882 1204.96 201.109 1186.69 216.12C1171.45 228.705 1148.78 234.998 1118.68 234.998H1036.69V72.1484H1118.95ZM1086.96 199.975H1114.65C1130.42 199.975 1142.07 196.563 1149.59 189.74C1158.55 181.4 1163.03 169.422 1163.03 153.804C1163.03 136.063 1156.85 123.175 1144.49 115.139C1136.06 109.832 1124.95 107.178 1111.16 107.178H1086.96V199.975Z" fill="white"/>
<path d="M1066.25 28C1094.39 28.0001 1116.34 34.0657 1132.11 46.1953C1151.64 61.0545 1161.41 81.7525 1161.41 108.288C1161.41 135.733 1152.27 156.96 1133.99 171.972C1118.76 184.556 1096.09 190.85 1065.98 190.85H984V28H1066.25ZM1034.27 155.826H1061.96C1077.73 155.826 1089.37 152.415 1096.9 145.592C1105.86 137.252 1110.34 125.274 1110.34 109.655C1110.34 91.9147 1104.16 79.0261 1091.79 70.9902C1083.37 65.6837 1072.26 63.0293 1058.46 63.0293H1034.27V155.826Z" fill="white" fill-opacity="0.2"/>
</g>
<defs>
<linearGradient id="paint0_linear_1254_8019" x1="0" y1="140" x2="3000" y2="140" gradientUnits="userSpaceOnUse">
<stop offset="0.25" stop-color="#212529"/>
<stop offset="0.75" stop-color="#463206"/>
</linearGradient>
<clipPath id="clip0_1254_8019">
<rect width="3000" height="280" fill="white"/>
</clipPath>
</defs>
</svg>
