<svg width="3000" height="99" viewBox="0 0 3000 99" fill="none" xmlns="http://www.w3.org/2000/svg">
<g clip-path="url(#clip0_1368_9968)">
<rect width="3000" height="99" fill="url(#paint0_linear_1368_9968)"/>
<path d="M1069.61 23.8848C1080.37 23.8848 1088.76 26.2041 1094.79 30.8428C1102.26 36.5255 1106 44.4416 1106 54.5898C1106 65.086 1102.5 73.2044 1095.51 78.9453C1089.69 83.758 1081.02 86.165 1069.51 86.165H1038.15V23.8848H1069.61ZM1057.38 72.7705H1067.97C1074 72.7705 1078.45 71.4659 1081.33 68.8564C1084.76 65.6669 1086.47 61.0854 1086.47 55.1123C1086.47 48.3278 1084.11 43.3984 1079.38 40.3252C1076.16 38.2958 1071.91 37.2813 1066.63 37.2812H1057.38V72.7705Z" fill="white"/>
<path d="M1049.46 7C1060.22 7.00002 1068.61 9.32008 1074.64 13.959C1082.11 19.6417 1085.85 27.5569 1085.85 37.7051C1085.85 48.2012 1082.35 56.3196 1075.36 62.0605C1069.54 66.8733 1060.87 69.2802 1049.35 69.2803H1018V7H1049.46ZM1037.22 55.8857H1047.81C1053.84 55.8857 1058.3 54.5812 1061.18 51.9717C1064.6 48.7822 1066.32 44.2013 1066.32 38.2285C1066.32 31.4441 1063.95 26.5147 1059.22 23.4414C1056 21.412 1051.75 20.3965 1046.48 20.3965H1037.22V55.8857Z" fill="white" fill-opacity="0.2"/>
<path d="M1950.43 -21.3852L1962.94 27.9676L2012.55 39.3784L1969.48 66.5197L1973.96 117.234L1934.83 84.6555L1887.99 104.588L1906.88 57.3119L1873.45 18.9165L1924.25 22.2769L1950.43 -21.3852Z" fill="#FFB310"/>
<path d="M1915.72 -1.77578L1928.23 47.577L1977.84 58.9878L1934.77 86.1291L1939.25 136.843L1900.13 104.265L1853.28 124.197L1872.17 76.9213L1838.74 38.5259L1889.54 41.8862L1915.72 -1.77578Z" fill="#FFB310" fill-opacity="0.3"/>
</g>
<defs>
<linearGradient id="paint0_linear_1368_9968" x1="0" y1="49.5" x2="3000" y2="49.5" gradientUnits="userSpaceOnUse">
<stop offset="0.25" stop-color="#212529"/>
<stop offset="0.75" stop-color="#460E06"/>
</linearGradient>
<clipPath id="clip0_1368_9968">
<rect width="3000" height="99" fill="white"/>
</clipPath>
</defs>
</svg>
