<svg width="93" height="60" viewBox="0 0 93 60" fill="none" xmlns="http://www.w3.org/2000/svg">
<path d="M93 0H0V60H93V0Z" fill="#990033"/>
<path d="M44.5776 49.2175C42.9577 49.2175 41.788 48.7325 41.0687 47.7623C40.3562 46.7922 40 45.248 40 43.1299V41.0441H43.5089V43.7119C43.5089 44.2051 43.5693 44.5931 43.6903 44.8761C43.818 45.151 44.0365 45.2885 44.3457 45.2885C44.6684 45.2885 44.8902 45.1752 45.0111 44.9489C45.1389 44.7226 45.2027 44.3507 45.2027 43.8332C45.2027 43.1784 45.149 42.6327 45.0413 42.1962C44.9338 41.7515 44.7457 41.3311 44.4768 40.935C44.2146 40.5306 43.8483 40.0619 43.3777 39.5282L41.7846 37.7092C40.5948 36.359 40 34.815 40 33.0768C40 31.2578 40.3495 29.8713 41.0486 28.9173C41.7544 27.9633 42.7727 27.4863 44.1037 27.4863C45.7304 27.4863 46.8832 28.0077 47.5622 29.0507C48.2477 30.0936 48.5905 31.6781 48.5905 33.8044H44.9809V32.337C44.9809 32.046 44.9103 31.8197 44.7692 31.6579C44.6347 31.4962 44.4499 31.4153 44.2146 31.4153C43.9323 31.4153 43.7239 31.5125 43.5894 31.7065C43.4618 31.8923 43.3979 32.1349 43.3979 32.4341C43.3979 32.7332 43.4651 33.0565 43.5996 33.4042C43.734 33.7519 43.9996 34.1521 44.396 34.6047L46.4429 36.9695C46.853 37.4384 47.2294 37.9356 47.5722 38.4611C47.915 38.9784 48.1907 39.5849 48.399 40.2801C48.6074 40.9673 48.7116 41.8081 48.7116 42.8025C48.7116 44.8075 48.4024 46.3799 47.7839 47.5197C47.1723 48.6516 46.1035 49.2175 44.5776 49.2175ZM51.4239 49.0235V31.7792H49.3166V27.6804H57.0804V31.7792H54.9731V49.0235H51.4239ZM57.3224 49.0235L59.0365 27.6804H65.056L66.7399 49.0235H63.3822L63.1302 45.5794H60.9925L60.7708 49.0235H57.3224ZM61.2446 42.1718H62.8579L62.0815 31.3185H61.9202L61.2446 42.1718ZM67.8288 49.0235V27.6804H73.2735C74.181 27.6804 74.8666 27.931 75.3304 28.4323C75.7943 28.9254 76.1035 29.6206 76.2581 30.518C76.4195 31.4073 76.5 32.4542 76.5 33.6589C76.5 34.8231 76.3757 35.7527 76.127 36.448C75.885 37.1434 75.4245 37.6243 74.7457 37.8911C75.3036 38.0286 75.6934 38.364 75.9152 38.8977C76.1438 39.4231 76.2581 40.1063 76.2581 40.9471V49.0235H72.7593V40.6682C72.7593 40.0456 72.6518 39.6617 72.4366 39.5161C72.2283 39.3624 71.8888 39.2858 71.4183 39.2858V49.0235H67.8288ZM71.4385 35.5871H72.2955C72.7861 35.5871 73.0316 34.9443 73.0316 33.6589C73.0316 32.8262 72.9778 32.2804 72.8703 32.0218C72.7626 31.763 72.5611 31.6337 72.2652 31.6337H71.4385V35.5871Z" fill="white"/>
<path d="M17.8749 12.3049H24.0012C26.0967 12.3049 27.7316 12.7567 28.9062 13.6601C30.3611 14.7669 31.0884 16.3084 31.0884 18.2848C31.0884 20.3289 30.4077 21.91 29.0463 23.028C27.9118 23.9654 26.2235 24.4341 23.9812 24.4341H17.8749V12.3049ZM21.6188 14.9137V21.8253H23.6809C24.8554 21.8253 25.723 21.5712 26.2835 21.063C26.9508 20.4418 27.2845 19.5497 27.2845 18.3864C27.2845 17.0651 26.8241 16.1051 25.9031 15.5066C25.2758 15.1114 24.4483 14.9137 23.4206 14.9137H21.6188ZM45.3384 12.3049V19.5214C45.3384 21.1364 44.9446 22.3448 44.1572 23.1466C43.1161 24.2082 41.4344 24.739 39.112 24.739C36.6427 24.739 34.8877 24.1405 33.8466 22.9433C33.1926 22.1866 32.8656 21.0347 32.8656 19.4875V12.3049H36.6095V19.7247C36.6095 20.5717 36.8097 21.1872 37.2101 21.5712C37.6237 21.9439 38.2844 22.1302 39.1921 22.1302C40.033 22.1302 40.6468 21.9439 41.034 21.5712C41.421 21.1872 41.6146 20.5717 41.6146 19.7247V12.3049H45.3384ZM60.9022 19.7078C60.8088 20.9727 60.2949 22.0624 59.3606 22.9772C58.1728 24.1517 56.4777 24.739 54.2754 24.739C51.9264 24.739 50.1045 24.0501 48.8098 22.6723C47.7021 21.509 47.1481 20.0691 47.1481 18.3526C47.1481 16.5795 47.7821 15.0887 49.0501 13.8804C50.3714 12.6268 52.1532 12 54.3955 12C56.2642 12 57.819 12.4913 59.0603 13.4738C60.1281 14.3208 60.7087 15.3598 60.8021 16.5908H57.1583C57.0116 16.0374 56.7847 15.6196 56.4777 15.3372C55.9571 14.8516 55.2431 14.6088 54.3355 14.6088C53.2143 14.6088 52.3468 14.9871 51.7328 15.7438C51.2123 16.41 50.952 17.2853 50.952 18.3695C50.952 19.6231 51.2857 20.583 51.953 21.2493C52.5404 21.8366 53.3212 22.1302 54.2954 22.1302C55.2964 22.1302 56.0572 21.8197 56.5778 21.1985C56.858 20.8597 57.0516 20.3628 57.1583 19.7078H60.9022ZM75.8393 12.3049L70.5139 17.0651L76.5 24.4341H71.8553L67.9913 19.352L66.4497 20.6903V24.4341H62.7059V12.3049H66.4497V15.3372V16.235V17.0651C66.9703 16.4553 67.4107 15.9753 67.7711 15.6252L71.2146 12.3049H75.8393Z" fill="white"/>
<path d="M26.7623 30.8574L29.4767 37.3836L36.5223 37.9485L31.1543 42.5467L32.7943 49.422L26.7623 45.7377L20.7303 49.422L22.3703 42.5467L17.0023 37.9485L24.0479 37.3836L26.7623 30.8574Z" fill="#FFB310"/>
</svg>
